<?xml version="1.0" encoding="iso-8859-1"?>
<!-- Generator: Adobe Illustrator 19.0.0, SVG Export Plug-In . SVG Version: 6.00 Build 0)  -->
<svg version="1.1" id="Capa_1" xmlns="http://www.w3.org/2000/svg" xmlns:xlink="http://www.w3.org/1999/xlink" x="0px" y="0px"
	 viewBox="0 0 471.7 471.7" style="enable-background:new 0 0 471.7 471.7;" xml:space="preserve">
<path style="fill:#FDC75B;" d="M396.2,251.9v167.8c0,23-18.7,41.7-41.7,41.7H117.1c-23,0-41.7-18.7-41.7-41.7V251.9
	c0-23,18.7-41.7,41.7-41.7h3.8h41.7h146.6h41.6h3.8C377.6,210.2,396.2,228.9,396.2,251.9z M261.9,339.9c0-14.4-11.7-26.1-26.1-26.1
	s-26.1,11.7-26.1,26.1s11.7,26.1,26.1,26.1C250.2,366,261.9,354.3,261.9,339.9z"/>
<path style="fill:#ED664C;" d="M350.8,205.9v4.4h-41.7v-4.4v-80c0-20.3-7.8-39.2-22-53.3c-13.7-13.5-31.5-20.9-50.5-20.9
	c-0.2,0-0.4,0-0.6,0c-40.6,0-73.4,33.3-73.4,74.2v80v4.4h-41.8v-4.4v-80C120.8,62,172.4,10,235.8,10c30.3-0.4,58.9,11.4,80.6,32.9
	c22.2,22,34.4,51.4,34.4,82.9V205.9z"/>
<circle style="fill:#FDC75B;" cx="235.8" cy="339.9" r="26.1"/>
<path d="M117.1,471.7h237.5c28.5,0,51.3-23.5,51.3-52V251.9c0-26.4-19-48.2-45-51.3v-74.7c0-34.2-13.3-66.2-37.4-90
	C300.2,12.7,269.7,0,237.4,0c-0.5,0-1.1,0-1.6,0c-69,0.1-125,56.5-125,125.9v74.7c-26,3.1-45,24.9-45,51.3v167.8
	C65.8,448.2,88.6,471.7,117.1,471.7z M235.8,19.7h0.1c27.5,0,53.5,10.5,73.4,30.2c20.3,20.1,31.4,47.2,31.4,76v74.8h-22v-74.8
	c0-23-8.7-44.4-24.9-60.5c-15.4-15.3-35.6-23.7-57.2-23.7H236c-46,0-83.2,37.8-83.2,84.2v74.8h-22v-74.8
	C130.8,67.5,177.9,19.7,235.8,19.7z M298.8,200.7h-126v-74.8c0-35.4,28.2-64.2,63.2-64.2h0.6c16.3,0,31.6,6.4,43.3,18
	c12.3,12.2,19,28.7,19,46.2v74.8H298.8z M386.8,420c0,17.5-14.2,31.7-31.7,31.7H117.5c-17.5,0-31.7-14.2-31.7-31.7V252.4
	c0-17.5,14.2-31.7,31.7-31.7h237.6c17.5,0,31.7,14.2,31.7,31.7V420z"/>
<path d="M225.8,374.6v28c0,5.5,4.5,10,10,10s10-4.5,10-10v-28c15-4.3,26.1-18.2,26.1-34.6c0-19.9-16.2-36.1-36.1-36.1
	s-36.1,16.2-36.1,36.1C199.7,356.3,210.8,370.2,225.8,374.6z M235.8,323.9c8.9,0,16.1,7.2,16.1,16.1s-7.2,16.1-16.1,16.1
	s-16.1-7.2-16.1-16.1S226.9,323.9,235.8,323.9z"/>
<g>
</g>
<g>
</g>
<g>
</g>
<g>
</g>
<g>
</g>
<g>
</g>
<g>
</g>
<g>
</g>
<g>
</g>
<g>
</g>
<g>
</g>
<g>
</g>
<g>
</g>
<g>
</g>
<g>
</g>
</svg>
