<?xml version="1.0"?>
<svg xmlns="http://www.w3.org/2000/svg" xmlns:xlink="http://www.w3.org/1999/xlink" xmlns:svgjs="http://svgjs.com/svgjs" version="1.1" width="512" height="512" x="0" y="0" viewBox="0 0 512 512" style="enable-background:new 0 0 512 512" xml:space="preserve" class=""><g><g xmlns="http://www.w3.org/2000/svg"><path d="m510.858 250.26c-2.322-5.605-7.791-9.26-13.858-9.26h-97.467v-226c0-8.284-6.716-15-15-15h-257.066c-8.284 0-15 6.716-15 15v226h-97.467c-6.067 0-11.536 3.654-13.858 9.26-2.321 5.605-1.038 12.057 3.252 16.347l241 241c2.928 2.928 6.767 4.393 10.606 4.393s7.678-1.465 10.606-4.394l241-241c4.29-4.29 5.573-10.741 3.252-16.346zm-254.858 225.527-204.787-204.787h76.254c8.284 0 15-6.716 15-15v-226h227.066v226c0 8.284 6.716 15 15 15h76.254z" fill="#6127a7" data-original="#000000" style="" class=""/><path d="m313.2 83.333c-6.627-4.97-16.029-3.626-21 3l-96.4 128.533c-4.971 6.627-3.627 16.029 3 21 6.483 4.862 15.922 3.771 21-3l96.4-128.533c4.971-6.627 3.627-16.029-3-21z" fill="#6127a7" data-original="#000000" style="" class=""/><path d="m207.8 126.4c8.284 0 15-6.716 15-15v-16.067c0-8.284-6.716-15-15-15s-15 6.716-15 15v16.067c0 8.285 6.716 15 15 15z" fill="#6127a7" data-original="#000000" style="" class=""/><path d="m304.2 192.8c-8.284 0-15 6.716-15 15v16.066c0 8.284 6.716 15 15 15s15-6.716 15-15v-16.066c0-8.284-6.716-15-15-15z" fill="#6127a7" data-original="#000000" style="" class=""/></g></g></svg>
