<svg id="Capa_1" enable-background="new 0 0 512 512" height="512" viewBox="0 0 512 512" width="512" xmlns="http://www.w3.org/2000/svg"><g><g><g><g><g><g><g><circle cx="256" cy="256" fill="#ffce00" r="256"/></g></g></g></g></g></g><path d="m510.625 282.694-115.796-115.795-270.015 263.328 75.757 75.757c17.848 3.939 36.396 6.016 55.429 6.016 132.371 0 241.276-100.466 254.625-229.306z" fill="#ffa300"/><g><g><path d="m301.474 73.544h-157.23c-14.953 0-27.074 12.122-27.074 27.074v310.764c0 14.953 12.121 27.074 27.074 27.074h223.51c14.953 0 27.074-12.122 27.074-27.074v-244.483l-51.838-39.351z" fill="#a260e5"/></g><g><path d="m301.474 73.544h-45.354v364.913h111.635c14.953 0 27.074-12.122 27.074-27.074v-244.484l-52.707-38.482z" fill="#7a3eb5"/></g><g><path d="m301.474 139.824c0 14.953 12.121 27.074 27.074 27.074h66.281l-93.355-93.355z" fill="#a260e5"/></g></g><g><g><g><path d="m171.958 303.683h26.704v30h-26.704z" fill="#fff"/></g><g fill="#fff"><path d="m213.795 303.683h42.326v30h-42.326z"/><path d="m256.121 303.683h83.921v30h-83.921z"/></g></g><g><g><path d="m171.958 360.366h26.704v30h-26.704z" fill="#fff"/></g><g fill="#fff"><path d="m213.795 360.366h42.326v30h-42.326z"/><path d="m256.121 360.366h83.921v30h-83.921z"/></g></g><g><g><path d="m171.958 247h26.704v30h-26.704z" fill="#fff"/></g><g><path d="m213.795 247h126.247v30h-126.247z" fill="#fff"/></g><g><path d="m256.121 303.683h83.921v30h-83.921z" fill="#e9edf5"/></g><g><path d="m256.121 360.366h83.921v30h-83.921z" fill="#e9edf5"/></g><g><path d="m256.121 247h83.921v30h-83.921z" fill="#e9edf5"/></g></g></g></g></svg>